<?xml version="1.0" ?><svg id="Layer_1" style="enable-background:new 0 0 96 96;" version="1.1" viewBox="0 0 96 96" xml:space="preserve" xmlns="http://www.w3.org/2000/svg" xmlns:xlink="http://www.w3.org/1999/xlink"><style type="text/css">
	.st0{fill:none;stroke:#ffffff;stroke-width:4;stroke-linecap:round;stroke-miterlimit:10;}
	.st1{fill:none;stroke:#ffffff;stroke-width:4;stroke-linecap:round;stroke-linejoin:round;stroke-miterlimit:10;}
	.st2{fill:none;stroke:#ffffff;stroke-width:4;stroke-linejoin:round;stroke-miterlimit:10;}
	.st3{fill:none;stroke:#ffffff;stroke-width:6;stroke-linecap:round;stroke-linejoin:round;stroke-miterlimit:10;}
	.st4{fill:#ffffff;}
	.st5{fill:none;stroke:#ffffff;stroke-width:3.8974;stroke-linejoin:round;stroke-miterlimit:10;}
	.st6{fill:none;stroke:#ffffff;stroke-width:2;stroke-linecap:round;stroke-linejoin:round;stroke-miterlimit:10;}
	.st7{fill:#ffffff;stroke:#ffffff;stroke-width:2;stroke-miterlimit:10;}
	.st8{opacity:0.75;}
	.st9{fill:none;stroke:#ffffff;stroke-width:2;stroke-linejoin:round;stroke-miterlimit:10;}
	.st10{fill:none;stroke:#ffffff;stroke-width:6;stroke-linejoin:round;stroke-miterlimit:10;}
	.st11{fill:none;stroke:#ffffff;stroke-width:3;stroke-linejoin:round;stroke-miterlimit:10;}
	.st12{fill:none;stroke:#ffffff;stroke-width:3.9497;stroke-linejoin:round;stroke-miterlimit:10;}
	.st13{fill:none;stroke:#ffffff;stroke-width:1.9008;stroke-linejoin:round;stroke-miterlimit:10;}
	.st14{fill:none;stroke:#ffffff;stroke-width:1.9935;stroke-linejoin:round;stroke-miterlimit:10;}
	.st15{fill:none;stroke:#ffffff;stroke-width:4;stroke-miterlimit:10;}
	.st16{fill:none;stroke:#ffffff;stroke-width:1.9048;stroke-linecap:round;stroke-linejoin:round;stroke-miterlimit:10;}
	.st17{fill:none;stroke:#ffffff;stroke-width:1.934;stroke-linecap:round;stroke-linejoin:round;stroke-miterlimit:10;}
	.st18{fill:none;stroke:#ffffff;stroke-width:1.9684;stroke-linecap:round;stroke-linejoin:round;stroke-miterlimit:10;}
	.st19{fill:none;stroke:#ffffff;stroke-width:1.9343;stroke-linecap:round;stroke-linejoin:round;stroke-miterlimit:10;}
</style><polyline class="st2" points="68,16 92,16 92,90 84,90 84,84 12,84 12,90 4,90 4,16 62,16 "/><polyline class="st2" points="68,23 79,23 85,28 85,77 11,77 11,28 17,23 62,23 "/><g><path class="st1" d="M58,70H24.5c-1.4,0-2.5-1.1-2.5-2.5s1.1-2.5,2.5-2.5h46.9c1.4,0,2.5,1.1,2.5,2.5S72.9,70,71.5,70H64"/></g><line class="st2" x1="28" x2="28" y1="74" y2="72"/><line class="st2" x1="68" x2="68" y1="74" y2="72"/><rect class="st1" height="13" width="12" x="42" y="38"/><line class="st2" x1="50" x2="50" y1="38" y2="34"/><g><path class="st2" d="M44.9,52.2c-0.5-0.7-0.2-1.2,0.6-1.2h5c0.8,0,1.1,0.5,0.6,1.2l-2.2,3.1c-0.5,0.7-1.3,0.7-1.8,0L44.9,52.2z"/></g><g><path class="st2" d="M50,33c0,0,0-0.9,0-2c0-1.1,1.8-2,4-2h7c2.2,0,4-1.8,4-4V11c0-2.2-1.8-4-4-4h-5c-2.2,0-4,1.4-4,3s0,3,0,3"/></g><line class="st2" x1="11" x2="39" y1="42" y2="42"/><line class="st2" x1="57" x2="85" y1="42" y2="42"/></svg>