<svg viewBox="0 0 484 88" xmlns="http://www.w3.org/2000/svg">
<path d="M80.2735 43.9582C80.2735 15.962 62.8628 0 40.1368 0C17.2852 0 0 15.962 0 43.9582C0 71.8291 17.2852 87.9164 40.1368 87.9164C62.8628 87.9164 80.2735 71.9544 80.2735 43.9582ZM61.9002 43.9582C61.9002 62.0931 53.2785 71.9126 40.1368 71.9126C26.9532 71.9126 18.3733 62.0931 18.3733 43.9582C18.3733 25.8234 26.9532 16.0038 40.1368 16.0038C53.2785 16.0038 61.9002 25.8234 61.9002 43.9582Z"/>
<path d="M147.403 22.5641H128.528L115.218 68.4862H114.549L101.198 22.5641H82.3641L104.839 86.7464H124.928L147.403 22.5641Z"/>
<path d="M177.744 88C193.648 88 204.363 80.2697 206.874 68.3609L190.384 67.2745C188.584 72.1633 183.98 74.7123 178.037 74.7123C169.123 74.7123 163.473 68.8205 163.473 59.2517V59.2099H207.25V54.321C207.25 32.509 194.025 21.7284 177.033 21.7284C158.115 21.7284 145.853 35.1415 145.853 54.9478C145.853 75.2972 157.948 88 177.744 88ZM163.473 48.1785C163.849 40.8661 169.416 35.0161 177.326 35.0161C185.069 35.0161 190.426 40.5318 190.468 48.1785H163.473Z"/>
<path d="M212.993 86.7464H230.822V50.4349C230.822 42.5375 236.598 37.1054 244.466 37.1054C246.935 37.1054 250.325 37.5233 251.999 38.0665V22.2716C250.409 21.8955 248.191 21.6448 246.391 21.6448C239.192 21.6448 233.291 25.8234 230.948 33.7626H230.278V22.5641H212.993V86.7464Z"/>
<path d="M308.812 40.8661C307.222 29.0408 297.68 21.7284 281.441 21.7284C264.993 21.7284 254.153 29.3333 254.195 41.7018C254.153 51.3124 260.221 57.5385 272.777 60.0456L283.91 62.2602C289.518 63.3884 292.071 65.4359 292.155 68.6534C292.071 72.4558 287.928 75.1719 281.692 75.1719C275.33 75.1719 271.103 72.4558 270.015 67.2327L252.479 68.1519C254.153 80.4369 264.616 88 281.65 88C298.307 88 310.235 79.5176 310.277 66.8566C310.235 57.5803 304.167 52.0228 291.695 49.4739L280.06 47.1339C274.075 45.8386 271.856 43.7911 271.898 40.699C271.856 36.8547 276.209 34.3476 281.734 34.3476C287.928 34.3476 291.611 37.7322 292.49 41.8689L308.812 40.8661Z"/>
<path d="M344.908 88C360.812 88 371.527 80.2697 374.038 68.3609L357.548 67.2745C355.748 72.1633 351.144 74.7123 345.201 74.7123C336.287 74.7123 330.636 68.8205 330.636 59.2517V59.2099H374.414V54.321C374.414 32.509 361.189 21.7284 344.197 21.7284C325.279 21.7284 313.016 35.1415 313.016 54.9478C313.016 75.2972 325.112 88 344.908 88ZM330.636 48.1785C331.013 40.8661 336.58 35.0161 344.49 35.0161C352.232 35.0161 357.59 40.5318 357.632 48.1785H330.636Z"/>
<path d="M409.454 88C425.358 88 436.072 80.2697 438.583 68.3609L422.093 67.2745C420.293 72.1633 415.69 74.7123 409.747 74.7123C400.832 74.7123 395.182 68.8205 395.182 59.2517V59.2099H438.96V54.321C438.96 32.509 425.734 21.7284 408.742 21.7284C389.825 21.7284 377.562 35.1415 377.562 54.9478C377.562 75.2972 389.657 88 409.454 88ZM395.182 48.1785C395.558 40.8661 401.125 35.0161 409.035 35.0161C416.778 35.0161 422.135 40.5318 422.177 48.1785H395.182Z"/>
<path d="M444.702 86.7464H462.531V50.4349C462.531 42.5375 468.307 37.1054 476.175 37.1054C478.644 37.1054 482.035 37.5233 483.709 38.0665V22.2716C482.118 21.8955 479.9 21.6448 478.1 21.6448C470.902 21.6448 465 25.8234 462.657 33.7626H461.987V22.5641H444.702V86.7464Z"/>
<path d="M48.6205 44.2554C48.6205 50.6166 45.162 54.061 39.8903 54.061C34.6018 54.061 31.1601 50.6166 31.1601 44.2554C31.1601 37.8942 34.6018 34.4497 39.8903 34.4497C45.162 34.4497 48.6205 37.8942 48.6205 44.2554Z"/>
</svg>
