<svg width="117" height="128" viewBox="0 0 117 128" xmlns="http://www.w3.org/2000/svg">
<path d="M116.872 64C116.872 23.2395 91.5237 0 58.4362 0C25.166 0 0 23.2395 0 64C0 104.578 25.166 128 58.4362 128C91.5237 128 116.872 104.76 116.872 64ZM90.1222 64C90.1222 90.403 77.5697 104.7 58.4362 104.7C39.2418 104.7 26.7503 90.403 26.7503 64C26.7503 37.597 39.2418 23.3004 58.4362 23.3004C77.5697 23.3004 90.1222 37.597 90.1222 64Z" />
<path d="M70.7879 64.4326C70.7879 73.6941 65.7526 78.7089 58.0774 78.7089C50.3778 78.7089 45.3669 73.6941 45.3669 64.4326C45.3669 55.1712 50.3778 50.1563 58.0774 50.1563C65.7526 50.1563 70.7879 55.1712 70.7879 64.4326Z" />
</svg>
