<svg version="1.1" viewBox="0 0 700 700" xmlns="http://www.w3.org/2000/svg">
 <path d="m518.7 700h-445.9c-11.199 0-21-5.6016-26.602-15.398-5.6016-9.8008-4.8984-21 0.69922-30.801l31.5-49.699c2.1016-3.5 7-4.8984 10.5-2.1016 3.5 2.1016 4.8984 7 2.1016 10.5l-31.5 49.699c-2.8008 4.8984-2.8008 9.8008-0.69922 14.699 2.1016 4.8984 7.6992 7.6992 12.602 7.6992h445.9c5.6016 0 10.5-2.8008 12.602-7.6992 2.1016-4.8984 2.1016-10.5-0.69922-14.699l-31.5-49c-2.1016-3.5-1.3984-8.3984 2.1016-10.5 3.5-2.1016 8.3984-1.3984 10.5 2.1016l31.5 49c6.3008 9.1016 6.3008 21 0.69922 30.801-2.8047 9.7969-12.605 15.398-23.805 15.398z"/>
 <path d="m173.6 658c-19.602 0-35-16.102-35-35 0-19.602 16.102-35 35-35h170.1c12.602 0 23.102-10.5 23.102-23.102 0-12.602-10.5-23.102-23.102-23.102h-84c-13.301 0-23.801-10.5-23.801-23.801v-46.199c0-4.1992 3.5-7.6992 7.6992-7.6992 4.1992 0 7.6992 3.5 7.6992 7.6992v46.199c0 4.8984 3.5 8.3984 8.3984 8.3984h84c21.699 0 38.5 17.5 38.5 38.5s-17.5 38.5-38.5 38.5l-170.1 0.003907c-10.5 0-19.602 9.1016-19.602 19.602s9.1016 19.602 19.602 19.602c4.1992 0 7.6992 3.5 7.6992 7.6992s-3.5 7.6992-7.6992 7.6992z"/>
 <path d="m567 520.1c-3.5 0-7-2.8008-7.6992-6.3008l-37.102-189.7c-0.69922-4.1992 2.1016-8.3984 6.3008-9.1016 4.1992-0.69922 8.3984 2.1016 9.1016 6.3008l37.098 189.7c0.69922 4.1992-2.1016 8.3984-6.3008 9.1016h-1.3984z"/>
 <path d="m530.6 520.1c-3.5 0-7-2.8008-7.6992-6.3008l-36.398-189.7c-0.69922-4.1992 2.1016-8.3984 6.3008-9.1016 4.1992-0.69922 8.3984 2.1016 9.1016 6.3008l36.395 189.7c0.69922 4.1992-2.1016 8.3984-6.3008 9.1016h-1.3984z"/>
 <path d="m425.6 520.1c-4.1992 0-7.6992-0.69922-11.199-2.8008-7.6992-4.1992-11.898-11.898-11.898-20.301l-0.003906-172.2c0-7 2.1016-12.602 6.3008-16.801s9.8008-6.3008 16.801-6.3008 14 2.8008 20.301 7.6992c20.301 16.102 25.898 47.602 37.801 112 4.1992 24.5 9.8008 53.898 17.5 89.602 0.69922 4.1992-2.1016 8.3984-6.3008 9.1016-4.1992 0.69922-8.3984-2.1016-9.1016-6.3008-7.6992-35.699-13.301-65.801-17.5-89.602-10.5-58.102-16.801-90.301-32.199-102.2-3.5-2.8008-7-4.1992-10.5-4.1992-1.3984 0-4.1992 0-5.6016 1.3984-1.3984 1.3984-1.3984 4.1992-1.3984 5.6016v171.5c0 4.1992 2.8008 6.3008 4.1992 7 1.3984 0.69922 4.1992 2.1016 8.3984 0l18.898-11.898c3.5-2.1016 8.3984-1.3984 10.5 2.1016 2.1016 3.5 1.3984 8.3984-2.1016 10.5l-18.898 11.898c-5.5977 2.7969-9.7969 4.1992-13.996 4.1992z"/>
 <path d="m634.2 520.1c-7.6992 0-14.699-2.8008-20.301-7.6992-19.602-15.398-24.5-42-35-100.1-4.1992-23.102-9.8008-52.5-16.801-88.199-0.69922-4.1992 2.1016-8.3984 6.3008-9.1016 4.1992-0.69922 8.3984 2.1016 9.1016 6.3008 7.6992 36.398 12.602 65.102 16.801 88.898 9.8008 55.301 14 78.398 29.398 91 3.5 2.8008 7 4.1992 10.5 4.1992 1.3984 0 4.1992 0 5.6016-1.3984 1.3984-1.3984 1.3984-4.1992 1.3984-5.6016v-172.9c0-4.1992-2.8008-6.3008-4.1992-7s-4.1992-2.1016-8.3984 0l-18.898 11.898c-3.5 2.1016-8.3984 1.3984-10.5-2.1016s-1.3984-8.3984 2.1016-10.5l18.898-11.898c7-4.8984 16.102-4.8984 23.801-0.69922 7.6992 4.1992 11.898 11.898 11.898 20.301l-0.003906 171.5c0 7-2.1016 12.602-6.3008 16.801-2.7969 4.1992-8.3984 6.3008-15.398 6.3008z"/>
 <path d="m494.2 330.4c-3.5 0-7-2.1016-7.6992-6.3008l-25.898-110.6c-13.301-62.301 17.5-79.801 28-83.301 21.699-8.3984 47.602 0.69922 59.5 21 14.699 25.199 9.1016 47.602-0.69922 59.5-9.8008 11.898-25.199 16.801-39.199 11.898-4.1992-1.3984-6.3008-5.6016-4.8984-9.8008 1.3984-4.1992 5.6016-6.3008 9.8008-4.8984 7.6992 2.8008 16.102 0 22.398-7 8.3984-10.5 8.3984-25.898-0.69922-42-7.6992-14-25.898-20.301-39.898-14.699-18.898 7-25.898 31.5-18.199 65.801l25.898 110.6c0.69922 4.1992-1.3984 8.3984-5.6016 9.1016-1.4023 0.69922-2.1055 0.69922-2.8047 0.69922z"/>
 <path d="m344.4 336.7h-202.3c-16.801 0-30.102-14-30.102-30.102v-147.7c0-16.801 14-30.102 30.102-30.102h202.3c16.801 0 30.102 14 30.102 30.102v147.7c0.69531 16.801-13.305 30.102-30.105 30.102zm-202.3-193.2c-8.3984 0-14.699 7-14.699 14.699v147.7c0 8.3984 7 14.699 14.699 14.699h202.3c8.3984 0 14.699-7 14.699-14.699v-147c0-8.3984-7-14.699-14.699-14.699h-202.3z"/>
 <path d="m310.1 411.6h-133c-11.898 0-21.699-9.1016-21.699-19.602l-0.003906-63c0-4.1992 3.5-7.6992 7.6992-7.6992 4.1992 0 7.6992 3.5 7.6992 7.6992l0.003906 63c0 2.1016 2.8008 4.1992 6.3008 4.1992h133c3.5 0 6.3008-2.1016 6.3008-4.1992l-0.003906-63c0-4.1992 3.5-7.6992 7.6992-7.6992 4.1992 0 7.6992 3.5 7.6992 7.6992l0.003906 63c0 10.5-9.8008 19.602-21.699 19.602z"/>
 <path d="m243.6 143.5c-4.1992 0-7.6992-3.5-7.6992-7.6992v-51.102c0-4.1992 3.5-7.6992 7.6992-7.6992 4.1992 0 7.6992 3.5 7.6992 7.6992v51.102c0 4.1992-3.5 7.6992-7.6992 7.6992z"/>
 <path d="m257.6 479.5h-28c-14 0-25.898-9.8008-29.398-23.102l-11.898-50.398c-0.69922-2.1016 0-4.8984 1.3984-6.3008 1.3984-2.1016 3.5-2.8008 6.3008-2.8008h95.898c2.1016 0 4.8984 1.3984 6.3008 2.8008 1.3984 2.1016 2.1016 4.1992 1.3984 6.3008l-12.602 50.398c-3.5 13.301-15.398 23.102-29.398 23.102zm-52.5-67.898 9.8008 41.301c1.3984 6.3008 7.6992 11.199 14 11.199h28c7 0 12.602-4.8984 14-11.199l9.8008-41.301z"/>
 <path d="m420 162.4c-2.8008 0-6.3008-2.1016-7-4.8984-3.5-9.1016-7-17.5-9.8008-25.898-14-37.801-25.898-70-48.301-95.898-16.102-18.199-42-24.5-64.398-16.102-24.5 9.1016-39.199 32.898-39.199 65.801 0 4.1992-3.5 7.6992-7.6992 7.6992-4.1992 0-7.6992-3.5-7.6992-7.6992 0-39.199 18.199-68.602 49-80.5 28.699-10.5 61.602-2.8008 81.898 20.301 23.801 27.301 37.102 63 51.102 100.1 3.5 8.3984 6.3008 16.801 9.8008 25.898 1.3984 4.1992-0.69922 8.3984-4.1992 9.8008-1.4023 0.69531-2.1055 1.3945-3.5039 1.3945z"/>
 <path d="m243.6 279.3c-4.1992 0-7.6992-3.5-7.6992-7.6992l-0.003906-75.602c0-4.1992 3.5-7.6992 7.6992-7.6992 4.1992 0 7.6992 3.5 7.6992 7.6992v75.602c0.003906 4.1992-3.4961 7.6992-7.6953 7.6992z"/>
</svg>
